<svg width="63" height="60" viewBox="0 0 63 60" fill="none" xmlns="http://www.w3.org/2000/svg">
<path d="M4 26C1.79086 26 -2.28611e-09 27.7909 0 30C2.28611e-09 32.2091 1.79086 34 4 34L4 26ZM61.8284 32.8284C63.3905 31.2663 63.3905 28.7337 61.8284 27.1716L36.3726 1.71573C34.8105 0.153631 32.2778 0.153631 30.7157 1.71573C29.1536 3.27783 29.1536 5.81049 30.7157 7.37258L53.3431 30L30.7157 52.6274C29.1536 54.1895 29.1536 56.7222 30.7157 58.2843C32.2778 59.8464 34.8105 59.8464 36.3726 58.2843L61.8284 32.8284ZM4 34L59 34L59 26L4 26L4 34Z" fill="white"/>
</svg>
