<svg width="23" height="16" viewBox="0 0 23 16" fill="none" xmlns="http://www.w3.org/2000/svg">
<path d="M4.96135 9.43807L9.05986 13.5366C9.34747 13.8242 9.48529 14.1597 9.47331 14.5432C9.46132 14.9267 9.32351 15.2623 9.05986 15.5499C8.77224 15.8375 8.4307 15.9873 8.03523 15.9993C7.63976 16.0113 7.29822 15.8734 7.01061 15.5858L0.431422 9.00665C0.143807 8.71904 0 8.38349 0 8C0 7.61651 0.143807 7.28096 0.431422 6.99335L7.01061 0.414165C7.29822 0.12655 7.63976 -0.0112649 8.03523 0.000719037C8.4307 0.012703 8.77224 0.162502 9.05986 0.450117C9.32351 0.737731 9.46132 1.07328 9.47331 1.45677C9.48529 1.84025 9.34747 2.1758 9.05986 2.46342L4.96135 6.56193H20.9959C21.4033 6.56193 21.7449 6.69974 22.0205 6.97537C22.2961 7.251 22.4339 7.59255 22.4339 8C22.4339 8.40745 22.2961 8.749 22.0205 9.02463C21.7449 9.30026 21.4033 9.43807 20.9959 9.43807H4.96135Z" fill="black"/>
</svg>
