<svg width="119" height="117" viewBox="0 0 119 117" fill="none" xmlns="http://www.w3.org/2000/svg">
<path d="M80.1699 43.37L40.7951 70.9147C40.3528 71.2241 39.7617 71.2146 39.3296 70.8911L12.3702 50.7117C11.463 50.0327 11.855 48.5937 12.9813 48.4686L79.3155 41.1034C79.731 41.0573 79.974 41.1555 80.1339 41.2613C80.3249 41.3878 80.5108 41.607 80.6231 41.9048C80.7353 42.2026 80.7404 42.4901 80.6804 42.7111C80.6302 42.8961 80.5125 43.1304 80.1699 43.37Z" stroke="white" stroke-width="7.5"/>
<path d="M79.1485 42.3394L39.8345 69.9708C39.3929 70.2812 39.2004 70.8401 39.3572 71.3566L49.1415 103.579C49.4707 104.663 50.9572 104.785 51.4585 103.769L80.9883 43.9152C81.1733 43.5402 81.1637 43.2783 81.1187 43.0919C81.0649 42.8693 80.9221 42.6197 80.6804 42.4127C80.4387 42.2057 80.1702 42.1029 79.942 42.084C79.7509 42.0682 79.4906 42.099 79.1485 42.3394Z" stroke="white" stroke-width="7.5"/>
</svg>
