<svg width="18" height="18" viewBox="0 0 18 18" fill="none" xmlns="http://www.w3.org/2000/svg">
<path d="M12.2766 17.2743C12.1591 17.6269 11.7116 17.7326 11.4488 17.4697L0.572061 6.59306C0.309236 6.33023 0.414884 5.8827 0.767501 5.76516L17.0825 0.326816C17.4734 0.196523 17.8453 0.568393 17.715 0.959272L12.2766 17.2743ZM11.0323 14.5226L14.4582 4.21581C14.588 3.82519 14.2166 3.45378 13.826 3.58362L3.51925 7.00955L5.88496 9.37526C6.04147 9.53177 6.28225 9.56675 6.47683 9.46126L9.5912 7.77274C10.0286 7.53562 10.5062 8.01325 10.2691 8.45061L8.40271 11.893L11.0323 14.5226ZM11.0323 14.5226L3.51925 7.00955L8.40271 11.893L11.0323 14.5226Z" fill="white"/>
</svg>
